<?xml version="1.0" encoding="UTF-8"?>
<svg width="200px" height="200px" viewBox="0 0 200 200" version="1.1" xmlns="http://www.w3.org/2000/svg" xmlns:xlink="http://www.w3.org/1999/xlink">
    <!-- Generator: Sketch 61.2 (89653) - https://sketch.com -->
    <title>drawio-config-logo</title>
    <desc>Created with Sketch.</desc>
    <g id="Page-1" stroke="none" stroke-width="1" fill="none" fill-rule="evenodd">
        <g id="drawio-config-logo" fill-rule="nonzero">
            <g id="draw-io-(1)">
                <path d="M200,191.46394 C200,196.286329 196.038751,200 191.46394,200 L8.53606028,200 C3.71367061,200 0,196.038751 0,191.46394 L0,8.53606028 C0,3.71367061 3.96124865,0 8.53606028,0 L191.453175,0 C196.275565,0 199.989236,3.96124865 199.989236,8.53606028 L199.989236,191.46394 L200,191.46394 Z" id="Path" fill="#F08705"></path>
                <path d="M200,191.46394 C200,196.286329 196.038751,200 191.46394,200 L68.4391819,200 L28.5898816,159.526372 L53.3476857,119.052745 L126.8676,27.7179763 L199.763186,102.841765 L200,191.46394 Z" id="Path" fill="#DF6C0C"></path>
                <path d="M164.230355,111.754575 L143.186222,111.754575 L120.904198,73.8858988 C125.855759,72.8955867 129.569429,68.4391819 129.569429,63.2400431 L129.569429,34.6501615 C129.569429,28.5898816 124.74704,23.7567277 118.675996,23.7567277 L81.5608181,23.7567277 C75.5005382,23.7567277 70.6673843,28.5791173 70.6673843,34.6501615 L70.6673843,63.2400431 C70.6673843,68.5575888 74.3810549,72.8955867 79.2034446,73.8858988 L56.9214209,111.883746 L35.8880517,111.883746 C29.8277718,111.883746 24.9946179,116.706136 24.9946179,122.77718 L24.9946179,151.367061 C24.9946179,157.427341 29.8170075,162.260495 35.8880517,162.260495 L73.0139935,162.260495 C79.0742734,162.260495 83.9074273,157.438105 83.9074273,151.367061 L83.9074273,122.77718 C83.9074273,116.7169 79.0850377,111.883746 73.0139935,111.883746 L69.4294941,111.883746 L91.4639397,74.262648 L108.665231,74.262648 L130.818084,111.883746 L127.104413,111.883746 C121.044133,111.883746 116.21098,116.706136 116.21098,122.77718 L116.21098,151.367061 C116.21098,157.427341 121.033369,162.260495 127.104413,162.260495 L164.230355,162.260495 C170.290635,162.260495 175.123789,157.438105 175.123789,151.367061 L175.123789,122.77718 C175.123789,116.706136 170.301399,111.754575 164.230355,111.754575 L164.230355,111.754575 Z" id="Path" fill="#FFFFFF"></path>
            </g>
            <path d="M179.383178,142.959 C179.568227,141.503 179.707014,140.047 179.707014,138.5 C179.707014,136.953 179.568227,135.497 179.383178,134.041 L189.144543,126.5335 C190.023529,125.851 190.254841,124.6225 189.699692,123.6215 L180.447213,107.8785 C179.892064,106.8775 178.642979,106.5135 177.625207,106.8775 L166.10587,111.4275 C163.700226,109.6075 161.109532,108.106 158.287526,106.9685 L156.529555,94.911 C156.390767,93.819 155.419257,93 154.262697,93 L135.757739,93 C134.601179,93 133.629669,93.819 133.490882,94.911 L131.732911,106.9685 C128.910905,108.106 126.320211,109.653 123.914566,111.4275 L112.39523,106.8775 C111.331195,106.468 110.128372,106.8775 109.573224,107.8785 L100.320745,123.6215 C99.7193335,124.6225 99.9969078,125.851 100.875893,126.5335 L110.637259,134.041 C110.452209,135.497 110.313422,136.9985 110.313422,138.5 C110.313422,140.0015 110.452209,141.503 110.637259,142.959 L100.875893,150.4665 C99.9969078,151.149 99.7655959,152.3775 100.320745,153.3785 L109.573224,169.1215 C110.128372,170.1225 111.377457,170.4865 112.39523,170.1225 L123.914566,165.5725 C126.320211,167.3925 128.910905,168.894 131.732911,170.0315 L133.490882,182.089 C133.629669,183.181 134.601179,184 135.757739,184 L154.262697,184 C155.419257,184 156.390767,183.181 156.529555,182.089 L158.287526,170.0315 C161.109532,168.894 163.700226,167.347 166.10587,165.5725 L177.625207,170.1225 C178.689242,170.532 179.892064,170.1225 180.447213,169.1215 L189.699692,153.3785 C190.254841,152.3775 190.023529,151.149 189.144543,150.4665 L179.383178,142.959 Z M145.5,156 C136.401429,156 129,148.598571 129,139.5 C129,130.401429 136.401429,123 145.5,123 C154.598571,123 162,130.401429 162,139.5 C162,148.598571 154.598571,156 145.5,156 Z" id="Shape" fill="#633B19"></path>
        </g>
    </g>
</svg>